<svg width="29" height="30" viewBox="0 0 29 30" fill="none" xmlns="http://www.w3.org/2000/svg">
<path d="M27.0183 1.91489H24.4296C24.1648 1.91489 23.9502 2.12923 23.9502 2.39362C23.9502 2.658 24.1648 2.87234 24.4296 2.87234H25.3216C25.1409 3.17062 25.0367 3.52009 25.0367 3.89343V26.5217C25.0367 26.786 25.2513 27.0004 25.5161 27.0004C25.781 27.0004 25.9956 26.786 25.9956 26.5217V3.89343C25.9956 3.33038 26.4544 2.87234 27.0183 2.87234C27.5822 2.87234 28.041 3.33038 28.041 3.89343V26.5217C28.041 27.9117 26.9084 29.0426 25.5161 29.0426C24.1239 29.0426 22.9913 27.9117 22.9913 26.5217V0.478723C22.9913 0.21434 22.7766 0 22.5118 0H0.479483C0.214616 0 0 0.21434 0 0.478723V26.5217C0 28.4396 1.56292 30 3.48392 30H25.5161C27.4371 30 29 28.4396 29 26.5217V3.89343C29 2.80245 28.111 1.91489 27.0183 1.91489ZM3.48392 29.0426C2.09169 29.0426 0.959029 27.9117 0.959029 26.5217V0.957447H22.0323V26.5217C22.0323 27.5127 22.4497 28.4084 23.118 29.0426H3.48392Z" fill="white"/>
<path d="M17.3972 0H0.479483C0.214616 0 0 0.21434 0 0.478723V5.26596C0 5.53034 0.214616 5.74468 0.479483 5.74468H17.3972C17.6621 5.74468 17.8767 5.53034 17.8767 5.26596V0.478723C17.8767 0.21434 17.6621 0 17.3972 0ZM16.9177 4.78723H0.958965V0.957447H16.9177V4.78723Z" transform="translate(2.55713 2.55273)" fill="white"/>
<path d="M17.3972 0H0.479483C0.214616 0 0 0.21434 0 0.478723C0 0.743106 0.214616 0.957447 0.479483 0.957447H17.3972C17.6621 0.957447 17.8767 0.743106 17.8767 0.478723C17.8767 0.21434 17.6621 0 17.3972 0Z" transform="translate(2.55713 9.25586)" fill="white"/>
<path d="M7.97936 0H0.479483C0.214616 0 0 0.21434 0 0.478723C0 0.743106 0.214616 0.957447 0.479483 0.957447H7.97942C8.24429 0.957447 8.4589 0.743106 8.4589 0.478723C8.4589 0.21434 8.24422 0 7.97936 0Z" transform="translate(11.9751 13.084)" fill="white"/>
<path d="M7.97942 0H0.479483C0.214616 0 0 0.21434 0 0.478723C0 0.743106 0.214616 0.957447 0.479483 0.957447H7.97942C8.24429 0.957447 8.4589 0.743106 8.4589 0.478723C8.4589 0.21434 8.24422 0 7.97942 0Z" transform="translate(2.55713 13.084)" fill="white"/>
<path d="M7.97936 0H0.479483C0.214616 0 0 0.21434 0 0.478723C0 0.743106 0.214616 0.957447 0.479483 0.957447H7.97942C8.24429 0.957447 8.4589 0.743106 8.4589 0.478723C8.4589 0.21434 8.24422 0 7.97936 0Z" transform="translate(11.9751 15)" fill="white"/>
<path d="M7.97942 0H0.479483C0.214616 0 0 0.21434 0 0.478723C0 0.743106 0.214616 0.957447 0.479483 0.957447H7.97942C8.24429 0.957447 8.4589 0.743106 8.4589 0.478723C8.4589 0.21434 8.24422 0 7.97942 0Z" transform="translate(2.55713 15)" fill="white"/>
<path d="M7.97936 0H0.479483C0.214616 0 0 0.21434 0 0.478723C0 0.743106 0.214616 0.957447 0.479483 0.957447H7.97942C8.24429 0.957447 8.4589 0.743106 8.4589 0.478723C8.4589 0.21434 8.24422 0 7.97936 0Z" transform="translate(11.9751 16.916)" fill="white"/>
<path d="M7.97936 0H0.479483C0.214616 0 0 0.21434 0 0.478723C0 0.743106 0.214616 0.957447 0.479483 0.957447H7.97942C8.24429 0.957447 8.4589 0.743106 8.4589 0.478723C8.4589 0.21434 8.24422 0 7.97936 0Z" transform="translate(11.9751 18.8301)" fill="white"/>
<path d="M0.479483 0.957447H5.42218C5.68705 0.957447 5.90166 0.743106 5.90166 0.478723C5.90166 0.21434 5.68705 0 5.42218 0H0.479483C0.214616 0 0 0.21434 0 0.478723C0 0.743106 0.214616 0.957447 0.479483 0.957447Z" transform="translate(11.9751 20.7441)" fill="white"/>
<path d="M5.42218 0H0.479483C0.214616 0 0 0.21434 0 0.478723C0 0.743106 0.214616 0.957447 0.479483 0.957447H5.42218C5.68705 0.957447 5.90166 0.743106 5.90166 0.478723C5.90166 0.21434 5.68705 0 5.42218 0Z" transform="translate(11.9751 26.4902)" fill="white"/>
<path d="M7.97936 0H0.479483C0.214616 0 0 0.21434 0 0.478723C0 0.743106 0.214616 0.957447 0.479483 0.957447H7.97942C8.24429 0.957447 8.4589 0.743106 8.4589 0.478723C8.4589 0.21434 8.24422 0 7.97936 0Z" transform="translate(11.9751 24.5742)" fill="white"/>
<path d="M7.97942 0H0.479483C0.214616 0 0 0.21434 0 0.478723V10.0532C0 10.3176 0.214616 10.5319 0.479483 10.5319H7.97942C8.24429 10.5319 8.4589 10.3176 8.4589 10.0532V0.478723C8.4589 0.21434 8.24422 0 7.97942 0ZM7.49994 9.57447H0.958965V0.957447H7.49994V9.57447Z" transform="translate(2.55713 16.916)" fill="white"/>
</svg>
