<svg width="37" height="26" viewBox="0 0 37 26" fill="none" xmlns="http://www.w3.org/2000/svg">
<path d="M3.70007 0C1.65946 0 0 1.627 0 3.62767C0 5.62835 1.65946 7.25535 3.70007 7.25535C5.74067 7.25535 7.40013 5.62835 7.40013 3.62767C7.40013 1.627 5.74059 0 3.70007 0ZM3.70007 6.0461C2.33964 6.0461 1.23338 4.96141 1.23338 3.62767C1.23338 2.29387 2.33971 1.20925 3.70007 1.20925C5.06042 1.20925 6.16675 2.29394 6.16675 3.62767C6.16675 4.96141 5.06042 6.0461 3.70007 6.0461Z" transform="translate(4.93359 18.7441)" fill="white"/>
<path d="M3.70007 0C1.65947 0 0 1.627 0 3.62767C0 5.62835 1.65947 7.25535 3.70007 7.25535C5.74067 7.25535 7.40013 5.62835 7.40013 3.62767C7.40013 1.627 5.74067 0 3.70007 0ZM3.70007 6.0461C2.33964 6.0461 1.23338 4.96141 1.23338 3.62767C1.23338 2.29387 2.33971 1.20925 3.70007 1.20925C5.06049 1.20925 6.16675 2.29394 6.16675 3.62767C6.16675 4.96141 5.06049 6.0461 3.70007 6.0461Z" transform="translate(25.9014 18.7441)" fill="white"/>
<path d="M13.4688 8.74213L7.91872 0.277532C7.80526 0.10458 7.60978 0 7.40006 0H0.616653C0.275625 0 0 0.270871 0 0.604589V15.7199C0 16.0542 0.275625 16.3245 0.616653 16.3245H3.08334V15.1152H1.23331V1.20925H7.06337L12.3335 9.24695V15.1154H9.25009V16.3245H12.9502C13.2912 16.3245 13.5668 16.0543 13.5668 15.7199V9.06918C13.5669 8.95369 13.533 8.83941 13.4688 8.74213Z" transform="translate(23.4336 6.65039)" fill="white"/>
<path d="M1.23331 5.44151V1.20925H6.16675V0H0.616653C0.275625 0 0 0.27087 0 0.604588V6.0461C0 6.38045 0.275625 6.65069 0.616653 6.65069H9.86681V5.44144H1.23331V5.44151Z" transform="translate(25.9014 9.07031)" fill="white"/>
<path d="M24.0504 0H0.616653C0.276276 0 0 0.270871 0 0.604588V19.9522C0 20.2866 0.276276 20.5568 0.616653 20.5568H5.5501V19.3475H1.23338V1.20918H23.4338V19.3475H11.7168V20.5568H24.0504C24.3915 20.5568 24.6671 20.2866 24.6671 19.9522V0.604588C24.6671 0.270871 24.3915 0 24.0504 0Z" transform="translate(0 2.41797)" fill="white"/>
<path d="M3.70007 0H0V1.20925H3.70007V0Z" transform="translate(0.616211 19.3496)" fill="white"/>
<path d="M10.4835 0H0V1.20925H10.4835V0Z" transform="translate(12.9502 19.3496)" fill="white"/>
<path d="M2.46669 0H0V1.20925H2.46669V0Z" transform="translate(33.918 19.3496)" fill="white"/>
<path d="M21.5837 0H0V1.20925H21.5837V0Z" transform="translate(2.4668 4.83789)" fill="white"/>
<path d="M1.23338 0H0V1.20925H1.23338V0Z" transform="translate(8.0166 21.7656)" fill="white"/>
<path d="M1.23338 0H0V1.20925H1.23338V0Z" transform="translate(28.9844 21.7656)" fill="white"/>
<path d="M8.63351 0H0V1.20925H8.63351V0Z" transform="translate(2.4668)" fill="white"/>
<path d="M1.23338 0H0V1.20925H1.23338V0Z" fill="white"/>
</svg>
