<?xml version="1.0" encoding="iso-8859-1"?>
<!-- Generator: Adobe Illustrator 19.0.0, SVG Export Plug-In . SVG Version: 6.00 Build 0)  -->
<svg xmlns="http://www.w3.org/2000/svg" xmlns:xlink="http://www.w3.org/1999/xlink" version="1.1" id="Capa_1" x="0px" y="0px" viewBox="0 0 512 512" style="enable-background:new 0 0 512 512;" xml:space="preserve" width="512px" height="512px">
<g>
	<g>
		<path d="M10.138,480H10c-5.522,0-10,4.477-10,10s4.478,10,10,10h0.138c5.522,0,10-4.477,10-10S15.66,480,10.138,480z" fill="#119239"/>
	</g>
</g>
<g>
	<g>
		<path d="M480.581,350.419c-0.146-0.05-0.292-0.098-0.439-0.142l-82.738-24.547c-2.23-0.826-3.796-2.364-3.983-3.861v-24.536    c0-0.33-0.018-0.656-0.049-0.978l31.542-18.086c0.182-0.104,0.36-0.215,0.536-0.331c14.477-9.561,23.985-26.586,25.435-45.543    c0.02-0.254,0.029-0.508,0.029-0.763v-10.37c14.64-4.325,25.354-17.892,25.354-33.915c0-8.341-2.908-16.013-7.757-22.066    c4.485,1.421,8.91,2.902,13.229,4.479c1.122,0.41,2.281,0.607,3.429,0.607c3.06,0,6.028-1.407,7.959-3.943    c2.654-3.487,2.729-8.297,0.184-11.865l-46.285-64.876V41.231c0-4.146-2.559-7.863-6.433-9.342    C438.466,31.077,387.94,12,339.038,12c-48.902,0-99.429,19.077-101.556,19.889c-3.873,1.479-6.433,5.196-6.433,9.342v48.467    l-46.075,64.882c-2.535,3.57-2.453,8.375,0.203,11.855c2.656,3.482,7.269,4.83,11.381,3.328c4.223-1.542,8.549-2.991,12.932-4.384    c-4.804,6.038-7.683,13.673-7.683,21.97c0,16.023,10.715,29.591,25.355,33.915v10.37c0,0.254,0.01,0.508,0.029,0.762    c1.454,19.037,10.895,36.063,25.252,45.544c0.179,0.118,0.361,0.23,0.548,0.337l31.906,18.24c-0.021,0.27-0.041,0.541-0.041,0.817    v20.07c-0.102,0.572-0.164,1.158-0.164,1.759v2.412c0,1.585-1.645,3.276-4.021,4.156l-82.811,24.546    c-0.148,0.044-0.297,0.092-0.443,0.143C178.92,356.852,166,374.252,166,392.732V480h-64v-98h19c19.299,0,35-15.701,35-35V209.958    c0-5.523-4.478-10-10-10c-5.522,0-10,4.477-10,10V347c0,8.271-6.729,15-15,15h-10.287V209.031c0-5.523-4.478-10-10-10    c-5.522,0-10,4.477-10,10V362H65.425V209.031c0-5.523-4.478-10-10-10c-5.522,0-10,4.477-10,10V362H35c-8.271,0-15-6.729-15-15    V209.958c0-5.523-4.478-10-10-10s-10,4.477-10,10V347c0,19.299,15.701,35,35,35h19v98H39.985c-5.522,0-10,4.477-10,10    s4.478,10,10,10H502c5.522,0,10-4.477,10-10c0-1.187,0-97.268,0-97.268C512,374.252,499.08,356.852,480.581,350.419z M82,480h-8    v-98h8V480z M251.05,48.31C265.792,43.357,303.475,32,339.038,32c35.486,0,73.23,11.364,87.987,16.315v32.011    c-16.019-3.191-46.719-7.808-90.324-7.808c-42.198,0-70.506,4.345-85.651,7.548V48.31z M247.175,101.534    c9.055-2.393,38.72-9.016,89.526-9.016c51.354,0,84.291,6.768,94.308,9.154l28.646,40.153    c-36.776-9.957-77.852-15.156-120.507-15.156c-42.694,0-83.803,5.208-120.605,15.183L247.175,101.534z M263.217,261.084    c-9.014-6.081-14.99-17.195-16.054-29.849v-18.531c0-5.523-4.478-10-10-10c-8.467,0-15.355-6.888-15.355-15.355    s6.889-15.355,15.355-15.355c5.332,0,9.727-4.184,9.988-9.509l0.34-6.928c28.736-5.85,59.697-8.887,91.657-8.887    c32,0,62.998,3.044,91.765,8.908v6.416c0,5.523,4.478,10,10,10c8.467,0,15.354,6.888,15.354,15.355s-6.888,15.355-15.354,15.355    c-5.522,0-10,4.477-10,10v18.529c-1.06,12.582-7.106,23.697-16.241,29.854l-60.818,34.872c-0.182,0.105-0.361,0.215-0.536,0.331    c-8.942,5.905-19.617,5.904-28.558,0c-0.179-0.118-0.361-0.231-0.548-0.337L263.217,261.084z M373.419,322.461v6.463    l-34.236,34.082l-34.326-34.089v-20.99l9.165,5.238c7.731,5.03,16.373,7.543,25.017,7.543c8.645,0,17.289-2.515,25.021-7.547    l9.359-5.366v10.633c-0.018,0.244-0.037,0.487-0.037,0.735v2.412C373.382,321.873,373.407,322.166,373.419,322.461z M212.958,480    H186v-87.268c0-9.723,7.632-19.725,17.787-23.352l9.171-2.718V480z M445,480h-11.694v-70.355c0-5.523-4.478-10-10-10    c-5.522,0-10,4.477-10,10V480H264.652v-70.355c0-5.523-4.478-10-10-10c-5.522,0-10,4.477-10,10V480h-11.694V360.734l53.661-15.906    c0.149-0.044,0.297-0.092,0.443-0.143c1.292-0.449,2.525-0.98,3.701-1.578l41.382,41.095c1.95,1.937,4.498,2.904,7.047,2.904    c2.552,0,5.104-0.971,7.055-2.913l41.206-41.02c1.135,0.569,2.319,1.08,3.561,1.512c0.146,0.051,0.292,0.098,0.439,0.142    L445,360.713V480z M492,480h-27V366.646l9.213,2.733c10.154,3.628,17.787,13.63,17.787,23.353V480z" fill="#119239"/>
	</g>
</g>
<g>
	<g>
		<path d="M380.319,177.349c-6.249,0-11.333,5.084-11.333,11.333s5.084,11.333,11.333,11.333c6.249,0,11.333-5.084,11.333-11.333    C391.652,182.433,386.568,177.349,380.319,177.349z" fill="#119239"/>
	</g>
</g>
<g>
	<g>
		<path d="M297.757,177.349c-6.249,0-11.333,5.084-11.333,11.333s5.084,11.333,11.333,11.333c6.249,0,11.333-5.084,11.333-11.333    S304.006,177.349,297.757,177.349z" fill="#119239"/>
	</g>
</g>
<g>
	<g>
		<path d="M254.652,369.568c-5.522,0-10,4.477-10,10v0.141c0,5.523,4.478,10,10,10c5.522,0,10-4.477,10-10v-0.141    C264.652,374.045,260.174,369.568,254.652,369.568z" fill="#119239"/>
	</g>
</g>
<g>
	<g>
		<path d="M423.306,369.568c-5.522,0-10,4.477-10,10v0.141c0,5.523,4.477,10,10,10c5.522,0,10-4.477,10-10v-0.141    C433.306,374.045,428.828,369.568,423.306,369.568z" fill="#119239"/>
	</g>
</g>
<g>
	<g>
		<path d="M356.648,235.28c-3.409-4.012-9.307-4.663-13.496-1.613c-0.333,0.153-1.634,0.667-4.113,0.667    c-2.373,0-3.617-0.469-3.956-0.62c-4.14-3.063-10.002-2.49-13.457,1.448c-3.644,4.151-3.231,10.469,0.919,14.112    c1.353,1.187,6.539,5.06,16.494,5.06c9.87-0.001,15.101-3.795,16.468-4.958C359.715,245.798,360.226,239.487,356.648,235.28z" fill="#119239"/>
	</g>
</g>
<g>
</g>
<g>
</g>
<g>
</g>
<g>
</g>
<g>
</g>
<g>
</g>
<g>
</g>
<g>
</g>
<g>
</g>
<g>
</g>
<g>
</g>
<g>
</g>
<g>
</g>
<g>
</g>
<g>
</g>
</svg>
