<?xml version="1.0" encoding="UTF-8"?>
<!DOCTYPE svg PUBLIC "-//W3C//DTD SVG 1.1//EN" "http://www.w3.org/Graphics/SVG/1.1/DTD/svg11.dtd">
<!-- Creator: CorelDRAW X8 -->
<svg xmlns="http://www.w3.org/2000/svg" xml:space="preserve" width="4.67985in" height="0.832276in" version="1.1" style="shape-rendering:geometricPrecision; text-rendering:geometricPrecision; image-rendering:optimizeQuality; fill-rule:evenodd; clip-rule:evenodd"
viewBox="0 0 4680 832"
 xmlns:xlink="http://www.w3.org/1999/xlink">
 <defs>
  <style type="text/css">
   <![CDATA[
    .fil0 {fill:#0E7935;fill-rule:nonzero}
    .fil1 {fill:#955A3C;fill-rule:nonzero}
    .fil2 {fill:#FFB900;fill-rule:nonzero}
   ]]>
  </style>
 </defs>
 <g id="Layer_x0020_1">
  <metadata id="CorelCorpID_0Corel-Layer"/>
  <path class="fil0" d="M449 169l0 -159 -356 0c-26,0 -48,9 -66,26 -18,17 -27,39 -27,66l0 719 180 0 0 -319 182 0c22,0 41,-8 56,-22 16,-15 24,-33 24,-55 0,-22 -8,-40 -24,-56 -15,-16 -34,-24 -56,-24l-181 0 0 -176 268 0z"/>
  <path class="fil0" d="M1193 695c30,-35 53,-75 71,-120 19,-51 28,-103 28,-159 0,-55 -9,-108 -28,-158 -20,-51 -46,-95 -81,-133 -1,-2 -3,-3 -4,-5l-265 296 279 279z"/>
  <path class="fil1" d="M508 426c2,52 11,101 30,149 19,50 46,94 81,132 34,39 75,69 123,92 48,22 101,33 159,33 57,0 109,-11 157,-33 47,-22 88,-52 122,-89l-284 -284 -388 0z"/>
  <path class="fil2" d="M902 0c-58,0 -111,11 -159,34 -48,22 -89,52 -124,90 -35,38 -62,82 -81,132 -19,48 -28,98 -30,150l388 0 269 -300c-30,-29 -66,-54 -106,-72 -48,-23 -100,-34 -157,-34z"/>
  <path class="fil0" d="M2904 412c0,-15 -1,-30 -2,-45 -1,-14 -3,-29 -6,-44 -10,-50 -27,-94 -51,-132 -24,-39 -53,-72 -88,-98 -35,-27 -74,-47 -118,-61 -44,-14 -91,-21 -142,-21 -14,0 -35,0 -61,0 -26,0 -54,0 -82,0 -29,0 -56,0 -82,0 -26,0 -46,0 -60,-1l0 722c0,26 9,47 27,64 18,17 40,25 65,25l211 0c59,0 113,-10 161,-31 48,-21 88,-50 122,-87 34,-37 60,-80 78,-130 19,-50 28,-104 28,-161zm-409 -244c35,0 66,6 95,19 28,12 52,30 72,53 19,22 35,48 45,78 11,30 16,62 16,96 0,34 -5,67 -15,97 -9,31 -24,57 -43,80 -19,23 -43,41 -70,55 -28,13 -60,20 -97,20l-107 0 0 -498 104 0z"/>
  <path class="fil0" d="M3323 290c0,-16 -3,-28 -10,-38 -6,-9 -15,-16 -26,-22 -10,-6 -22,-9 -34,-11 -13,-2 -26,-3 -38,-3l0 -92c0,-24 -8,-45 -25,-63 -17,-18 -37,-27 -61,-27 -24,0 -45,9 -61,26 -17,18 -26,39 -26,63l0 94c-12,0 -24,1 -36,3 -13,2 -24,5 -34,11 -10,5 -19,12 -25,21 -7,10 -10,22 -10,37 0,15 3,27 10,37 6,9 15,16 26,22 10,5 21,9 34,11 12,2 24,3 36,3l0 459 172 0 0 -458c12,0 25,-1 38,-3 12,-1 24,-5 34,-11 11,-5 20,-13 26,-22 7,-10 10,-22 10,-37z"/>
  <path class="fil0" d="M3466 0c-17,0 -32,6 -44,19 -12,12 -19,27 -19,44 0,18 7,33 19,46 13,12 28,18 45,18 18,0 32,-6 45,-18 12,-13 18,-28 18,-46 0,-17 -6,-32 -19,-44 -12,-13 -27,-19 -45,-19zm91 821l0 -526c0,-12 -2,-22 -6,-33 -5,-10 -11,-20 -19,-27 -8,-8 -17,-15 -27,-20 -10,-4 -21,-7 -33,-7 -24,0 -45,8 -62,25 -17,16 -26,37 -26,62l0 526 173 0z"/>
  <path class="fil0" d="M3948 214c-55,0 -106,9 -153,28 -47,19 -85,50 -116,93 -18,26 -33,54 -44,86 -11,32 -17,65 -17,99 0,44 8,85 23,122 15,38 36,70 63,99 27,28 58,50 95,65 37,16 77,24 122,24 0,1 2,1 3,1 2,0 4,0 5,-1 17,0 37,-1 59,-4 23,-3 44,-8 64,-16 21,-8 38,-19 52,-33 14,-14 21,-32 21,-55 0,-19 -7,-37 -22,-52 -15,-15 -33,-22 -53,-22 -7,0 -16,1 -26,4 -10,3 -20,7 -31,10 -12,3 -23,6 -35,9 -11,3 -23,4 -34,4 -21,0 -40,-5 -56,-14 -16,-10 -29,-22 -41,-36 -11,-15 -19,-32 -25,-50 -6,-19 -8,-38 -8,-57 0,-20 3,-39 9,-57 6,-19 14,-35 25,-49 12,-14 26,-25 43,-33 16,-8 36,-12 58,-12 24,0 48,4 73,14 25,9 50,18 73,25 1,-9 4,-20 8,-34 4,-13 9,-27 13,-42 5,-15 9,-29 12,-42 4,-14 6,-25 7,-34 -27,-13 -54,-23 -81,-30 -26,-7 -55,-10 -86,-10z"/>
  <path class="fil0" d="M4680 642c0,-32 -8,-59 -23,-81 -15,-22 -34,-41 -56,-56 -23,-15 -48,-28 -75,-38 -26,-10 -51,-19 -74,-27 -23,-8 -42,-17 -57,-25 -15,-8 -22,-18 -22,-30 0,-9 2,-16 5,-22 4,-6 9,-11 15,-14 6,-5 13,-8 21,-10 8,-2 15,-3 23,-3 16,0 32,3 47,7 15,5 29,10 43,15 13,6 26,11 38,15 12,5 24,7 35,7 17,0 32,-6 45,-18 13,-13 19,-28 19,-46 0,-20 -9,-37 -26,-52 -17,-14 -37,-25 -61,-33 -24,-9 -48,-15 -73,-18 -24,-4 -44,-6 -59,-6 -27,0 -55,4 -83,11 -28,8 -54,19 -77,34 -23,15 -42,34 -57,57 -15,23 -23,49 -23,80 0,32 8,58 23,78 15,21 33,38 56,52 22,14 47,25 73,34 26,8 51,17 73,25 23,7 41,16 56,25 15,10 23,22 23,37 0,10 -3,18 -7,25 -5,6 -11,12 -19,17 -7,4 -16,7 -25,9 -9,2 -17,3 -26,3 -13,0 -28,-2 -45,-6 -17,-4 -34,-10 -51,-16 -17,-6 -33,-13 -50,-21 -16,-7 -31,-14 -43,-21l-50 125c33,22 71,41 115,55 43,14 85,21 127,21 27,0 56,-4 85,-11 29,-8 56,-19 79,-35 24,-16 43,-35 58,-59 15,-24 23,-52 23,-84z"/>
  <path class="fil0" d="M1758 0c-58,0 -111,11 -159,34 -48,22 -89,52 -124,90 -35,38 -62,82 -82,132 -19,51 -29,104 -29,160 0,56 10,108 29,159 20,50 47,94 81,132 35,39 76,69 124,92 48,22 101,33 159,33 57,0 109,-11 157,-33 48,-23 90,-53 125,-92 34,-38 61,-82 80,-132 20,-51 29,-103 29,-159 0,-55 -9,-108 -29,-158 -19,-51 -45,-95 -80,-133 -34,-38 -76,-69 -124,-91 -48,-23 -100,-34 -157,-34zm209 422c0,32 -4,63 -13,94 -9,30 -23,57 -40,81 -18,23 -40,42 -67,57 -26,15 -57,22 -92,22 -36,0 -66,-8 -93,-23 -26,-15 -48,-36 -65,-60 -17,-25 -30,-53 -38,-84 -8,-30 -13,-61 -13,-93 0,-31 5,-62 13,-93 8,-31 21,-59 38,-83 17,-25 39,-45 65,-61 27,-15 57,-23 93,-23 36,0 68,8 95,23 27,16 49,36 66,61 18,25 30,54 39,86 8,31 12,64 12,96z"/>
 </g>
</svg>
