<?xml version="1.0" encoding="UTF-8"?>
<!DOCTYPE svg PUBLIC "-//W3C//DTD SVG 1.1//EN" "http://www.w3.org/Graphics/SVG/1.1/DTD/svg11.dtd">
<!-- Creator: CorelDRAW X8 -->
<svg xmlns="http://www.w3.org/2000/svg" xml:space="preserve" width="4.67985in" height="0.832276in" version="1.1" style="shape-rendering:geometricPrecision; text-rendering:geometricPrecision; image-rendering:optimizeQuality; fill-rule:evenodd; clip-rule:evenodd"
viewBox="0 0 4931 877"
 xmlns:xlink="http://www.w3.org/1999/xlink">
 <defs>
  <style type="text/css">
   <![CDATA[
    .fil0 {fill:#201E1E;fill-rule:nonzero}
   ]]>
  </style>
 </defs>
 <g id="Layer_x0020_1">
  <metadata id="CorelCorpID_0Corel-Layer"/>
  <path class="fil0" d="M473 178l0 -167 -375 0c-27,0 -51,9 -70,27 -19,18 -28,41 -28,70l0 757 190 0 0 -336 192 0c22,0 42,-8 59,-24 16,-15 25,-34 25,-57 0,-23 -9,-43 -25,-59 -17,-17 -37,-25 -59,-25l-191 0 0 -186 282 0z"/>
  <path class="fil0" d="M1257 733c32,-38 56,-80 74,-127 20,-53 31,-109 31,-168 0,-58 -11,-114 -31,-167 -20,-53 -48,-99 -84,-139 -2,-2 -3,-4 -5,-5l-279 311 294 295z"/>
  <path class="fil0" d="M536 449c1,54 11,107 30,157 21,52 49,99 86,139 36,41 80,73 130,96 51,24 106,36 167,36 60,0 115,-12 166,-36 50,-23 92,-54 129,-93l-300 -299 -408 0z"/>
  <path class="fil0" d="M950 0c-60,0 -116,12 -167,36 -50,23 -94,55 -131,95 -36,40 -65,86 -86,139 -19,50 -29,103 -30,158l408 0 284 -316c-33,-31 -70,-57 -112,-76 -50,-24 -106,-36 -166,-36z"/>
  <path class="fil0" d="M3060 434c0,-16 -1,-32 -2,-47 -1,-16 -4,-31 -7,-47 -11,-52 -29,-98 -54,-139 -25,-41 -55,-75 -92,-103 -37,-28 -78,-50 -124,-64 -47,-15 -97,-22 -150,-22 -15,0 -37,0 -64,0 -28,0 -57,0 -87,0 -30,0 -59,0 -86,0 -28,0 -49,-1 -63,-1l0 760c0,27 9,50 28,67 19,18 42,27 69,27l222 0c62,0 118,-11 169,-33 51,-22 94,-53 129,-91 36,-39 63,-85 83,-137 19,-53 29,-109 29,-170zm-432 -257c37,0 71,6 100,20 30,13 55,32 76,55 21,24 37,52 48,83 11,32 17,66 17,101 0,36 -5,71 -16,103 -10,32 -25,60 -45,84 -20,24 -45,43 -74,57 -30,14 -63,22 -102,22l-113 0 0 -525 109 0z"/>
  <path class="fil0" d="M3502 306c0,-17 -4,-30 -11,-40 -7,-10 -16,-18 -27,-24 -11,-6 -24,-10 -37,-12 -14,-1 -27,-2 -39,-2l0 -98c0,-25 -9,-47 -27,-66 -18,-19 -39,-28 -64,-28 -26,0 -47,9 -65,27 -18,19 -27,41 -27,66l0 100c-12,0 -25,1 -38,3 -13,2 -25,5 -36,11 -10,5 -19,13 -26,23 -7,10 -11,23 -11,39 0,15 4,28 11,38 7,10 16,18 27,23 11,6 23,10 36,12 13,2 26,4 39,4l0 483 181 0 0 -482c12,0 25,-1 39,-3 13,-2 26,-6 37,-12 11,-6 20,-14 27,-24 7,-10 11,-22 11,-38z"/>
  <path class="fil0" d="M3652 0c-18,0 -34,7 -47,20 -13,13 -19,28 -19,46 0,19 6,35 20,48 13,13 29,20 47,20 18,0 34,-7 47,-20 13,-13 20,-29 20,-48 0,-18 -7,-33 -21,-46 -13,-13 -29,-20 -47,-20zm96 865l0 -555c0,-11 -2,-23 -7,-34 -5,-11 -11,-21 -20,-29 -8,-8 -17,-15 -28,-20 -11,-5 -22,-8 -35,-8 -25,0 -47,9 -65,26 -18,18 -27,39 -27,65l0 555 182 0z"/>
  <path class="fil0" d="M4159 225c-57,0 -111,10 -160,30 -50,21 -91,53 -123,98 -19,27 -34,57 -46,91 -12,33 -18,68 -18,103 0,47 8,90 24,130 16,39 38,74 66,103 29,30 62,53 101,70 39,16 81,25 128,25 1,0 2,1 3,1 3,0 4,-1 5,-1 18,0 39,-2 63,-5 24,-2 46,-8 67,-16 22,-9 40,-20 55,-35 15,-15 22,-35 22,-58 0,-21 -7,-39 -23,-55 -16,-16 -35,-23 -56,-23 -8,0 -17,1 -27,4 -10,3 -22,7 -33,10 -12,4 -24,7 -37,10 -12,3 -24,4 -36,4 -22,0 -41,-5 -58,-15 -17,-10 -32,-22 -44,-38 -11,-15 -20,-33 -26,-52 -6,-20 -9,-40 -9,-60 0,-21 3,-41 9,-61 7,-19 16,-36 28,-51 11,-14 26,-26 44,-35 18,-8 38,-13 61,-13 25,0 51,5 78,15 26,10 52,19 76,27 2,-10 5,-22 9,-36 4,-14 9,-29 14,-44 4,-16 9,-30 13,-45 4,-14 6,-26 7,-35 -29,-14 -58,-25 -86,-32 -27,-7 -58,-11 -91,-11z"/>
  <path class="fil0" d="M4931 677c0,-34 -8,-63 -24,-86 -16,-24 -36,-43 -60,-59 -24,-16 -50,-29 -78,-40 -28,-10 -54,-20 -78,-29 -24,-8 -44,-17 -60,-26 -16,-8 -24,-19 -24,-32 0,-8 2,-16 6,-22 4,-7 9,-12 15,-16 7,-4 14,-8 22,-10 9,-2 17,-3 25,-3 17,0 34,3 49,7 16,5 31,10 45,16 15,6 28,12 41,16 12,5 25,8 37,8 18,0 33,-7 47,-20 13,-13 20,-29 20,-48 0,-21 -9,-40 -27,-55 -18,-15 -40,-26 -65,-35 -25,-9 -50,-15 -76,-19 -26,-4 -47,-6 -63,-6 -28,0 -57,4 -87,12 -30,8 -57,20 -81,35 -25,16 -45,36 -61,60 -16,24 -23,53 -23,85 0,33 7,61 23,82 16,22 36,40 60,55 23,14 49,26 77,35 27,9 53,18 77,26 23,9 43,18 59,28 16,10 24,22 24,38 0,11 -3,19 -8,26 -5,7 -12,13 -20,18 -8,5 -16,8 -26,10 -9,2 -18,3 -27,3 -14,0 -30,-2 -48,-6 -18,-5 -36,-10 -53,-17 -18,-7 -36,-14 -53,-22 -17,-8 -32,-15 -45,-22l-53 131c34,24 75,43 120,58 46,15 91,23 134,23 30,0 60,-4 90,-12 31,-8 59,-20 84,-37 25,-16 45,-37 61,-62 16,-25 24,-54 24,-88z"/>
  <path class="fil0" d="M1852 0c-61,0 -116,12 -167,36 -51,23 -94,55 -131,95 -37,40 -65,86 -86,139 -20,53 -31,109 -31,168 0,59 11,115 31,168 21,52 49,99 85,139 37,41 80,73 131,96 50,24 106,36 167,36 60,0 115,-12 166,-36 50,-23 94,-55 131,-96 36,-40 65,-87 85,-139 20,-53 30,-109 30,-168 0,-58 -10,-114 -30,-167 -20,-53 -48,-99 -85,-139 -36,-41 -79,-73 -130,-96 -51,-24 -106,-36 -166,-36zm221 444c0,34 -5,67 -15,99 -9,32 -23,61 -42,86 -18,25 -42,45 -70,60 -28,15 -60,23 -97,23 -38,0 -70,-8 -98,-24 -27,-16 -50,-37 -68,-64 -19,-26 -32,-55 -41,-87 -8,-33 -13,-65 -13,-99 0,-33 5,-66 13,-98 9,-32 22,-62 41,-88 18,-26 41,-47 68,-63 28,-16 60,-24 98,-24 38,0 72,8 100,24 29,16 52,38 70,64 18,26 32,56 40,90 9,34 14,67 14,101z"/>
 </g>
</svg>
