<svg width="33" height="33" viewBox="0 0 33 33" fill="none" xmlns="http://www.w3.org/2000/svg">
<path d="M32.8836 2.24481C32.799 2.14626 32.6779 2.08471 32.547 2.07375L25.2277 1.46035L25.095 0.425365C25.0608 0.159109 24.8126 -0.0296096 24.5419 0.00384154L17.752 0.841473C17.7253 0.834641 17.6979 0.829485 17.6694 0.8271L8.33682 0.0448981C8.06809 0.021695 7.82413 0.224464 7.80127 0.487626L7.66214 2.08606L0.433344 2.97783C0.165866 3.01083 -0.0298159 3.25788 0.00375025 3.52053L3.69366 32.3187C3.71041 32.45 3.6817 32.5762 3.73642 32.7033C3.81314 32.8812 3.99575 33 4.19275 33H28.491C28.7646 33 28.9862 32.7825 28.9862 32.5141V31.8812L29.9453 31.9616C30.214 31.9845 30.458 31.7822 30.4809 31.5189L32.9982 2.59937C33.0094 2.47091 32.9682 2.34342 32.8836 2.24481ZM3.69753 24.5581L1.04831 3.8814L3.69753 3.55463V24.5581ZM8.74598 1.05456L13.08 1.41775L8.66702 1.96218L8.74598 1.05456ZM24.1741 1.02871L24.4271 3.00336H8.16623L24.1741 1.02871ZM29.5362 30.9519L28.9862 30.9059V16.7059C28.9862 16.4375 28.7646 16.22 28.491 16.22C28.2174 16.22 27.9958 16.4374 27.9958 16.7059V32.0281H4.68796V3.97518H27.9958V14.4384C27.9958 14.7068 28.2175 14.9243 28.4911 14.9243C28.7647 14.9243 28.9863 14.7068 28.9863 14.4384V3.48927C28.9863 3.22089 28.7647 3.00336 28.4911 3.00336H25.4254L25.354 2.44629L31.9693 3.00072L29.5362 30.9519Z" fill="white"/>
<path d="M8.94678 0H6.30563C6.14004 0 5.98541 0.0811465 5.89364 0.216369L4.77276 1.86611C3.56628 1.0181 2.08918 0.518267 0.495215 0.518267C0.221694 0.518267 0 0.735732 0 1.00418V7.7421C0 8.01048 0.221628 8.22801 0.495215 8.22801H7.36214C7.63573 8.22801 7.85736 8.01055 7.85736 7.7421C7.85736 5.67335 6.96625 3.80524 5.54123 2.48705L6.57075 0.971823H8.94685C9.22037 0.971823 9.44206 0.754359 9.44206 0.485912C9.44206 0.217465 9.2203 0 8.94678 0ZM6.84788 7.25619H0.99043V1.50878C2.19139 1.59979 3.29933 2.02002 4.22263 2.67583L3.78075 3.32623C3.64274 3.52926 3.68321 3.81046 3.87383 3.96754C4.09704 4.15149 4.44327 4.10295 4.6048 3.86531L4.98296 3.3087C6.03586 4.33492 6.72675 5.71834 6.84788 7.25619Z" transform="translate(16.9033 5.59375)" fill="white"/>
<path d="M17.9267 13.4758H13.4471L12.6578 12.2367C13.9364 10.9367 14.7243 9.16883 14.7243 7.22383C14.7243 6.95539 14.5027 6.73792 14.2291 6.73792H7.85736V0.485912C7.85736 0.217529 7.63567 0 7.36215 0C3.30268 0 0 3.24063 0 7.22383C0 11.207 3.30268 14.4477 7.36215 14.4477C9.07809 14.4477 10.6587 13.8686 11.9119 12.8993L12.7527 14.2193C12.8432 14.3614 13.0019 14.4477 13.1726 14.4477H17.9267C18.2002 14.4477 18.4219 14.2302 18.4219 13.9618C18.4219 13.6933 18.2002 13.4758 17.9267 13.4758ZM10.9516 9.55781C10.8066 9.33009 10.501 9.261 10.2691 9.40325C10.0372 9.54543 9.96664 9.84527 10.1116 10.0729L11.3836 12.0697C10.286 12.9483 8.88576 13.4759 7.36221 13.4759C3.84887 13.4759 0.990496 10.6712 0.990496 7.2239C0.990496 3.94002 3.58415 1.23937 6.867 0.990579V7.2239C6.867 7.49228 7.08869 7.70981 7.36221 7.70981H13.7149C13.6043 9.11495 13.0181 10.3913 12.1146 11.3839L10.9516 9.55781Z" transform="translate(7.92334 8.18555)" fill="white"/>
<path d="M4.721 0H0.495215C0.22176 0 0 0.217465 0 0.485912C0 0.754359 0.221694 0.971824 0.495215 0.971824H4.721C4.99452 0.971824 5.21621 0.754359 5.21621 0.485912C5.21621 0.217465 4.99452 0 4.721 0Z" transform="translate(6.33838 24.2539)" fill="white"/>
<path d="M4.721 0H0.495215C0.221694 0 0 0.217465 0 0.485912C0 0.754359 0.221694 0.971824 0.495215 0.971824H4.721C4.99452 0.971824 5.21621 0.754359 5.21621 0.485912C5.21621 0.217465 4.99452 0 4.721 0Z" transform="translate(12.6777 24.2539)" fill="white"/>
<path d="M7.36214 0H0.495215C0.22176 0 0 0.217465 0 0.485912C0 0.754359 0.221694 0.971824 0.495215 0.971824H7.36214C7.63566 0.971824 7.85736 0.754359 7.85736 0.485912C7.85736 0.217465 7.6356 0 7.36214 0Z" transform="translate(6.33838 26.8457)" fill="white"/>
<path d="M2.07992 0H0.495215C0.22176 0 0 0.217465 0 0.485912C0 0.754359 0.221694 0.971824 0.495215 0.971824H2.07992C2.35344 0.971824 2.57513 0.754359 2.57513 0.485912C2.57507 0.217465 2.35344 0 2.07992 0Z" transform="translate(15.3184 26.8457)" fill="white"/>
<path d="M2.60811 0H0.495215C0.22176 0 0 0.217465 0 0.485912C0 0.754359 0.221694 0.971824 0.495215 0.971824H2.60811C2.88163 0.971824 3.10332 0.754359 3.10332 0.485912C3.10332 0.217465 2.88163 0 2.60811 0Z" transform="translate(6.33838 29.4375)" fill="white"/>
<path d="M6.83389 0H0.495214C0.221759 0 0 0.217465 0 0.485912C0 0.754359 0.221693 0.971824 0.495214 0.971824H6.83389C7.10741 0.971824 7.3291 0.754359 7.3291 0.485912C7.3291 0.217465 7.10741 0 6.83389 0Z" transform="translate(10.5645 29.4375)" fill="white"/>
</svg>
