<svg width="24" height="21" viewBox="0 0 24 21" fill="none" xmlns="http://www.w3.org/2000/svg">
<path d="M17.5148 19.8649H1.16159V1.13512H17.5148C17.8355 1.13512 18.0955 0.880965 18.0955 0.567514C18.0955 0.254111 17.8353 0 17.5148 0H0.580845C0.260085 0 0 0.254159 0 0.567514V20.4324C0 20.7458 0.260085 21 0.580845 21H17.5148C17.8355 21 18.0955 20.7457 18.0955 20.4324C18.0955 20.119 17.8355 19.8649 17.5148 19.8649Z" transform="translate(24 21) rotate(-180)" fill="white"/>
<path d="M13.2467 3.66651L9.66543 0.166304C9.43852 -0.0554346 9.07104 -0.0554346 8.84418 0.166304C8.61727 0.38775 8.61727 0.747155 8.84418 0.968845L11.434 3.50021H0.580745C0.260035 3.50021 0 3.75437 0 4.06773C0 4.38118 0.260085 4.63534 0.580745 4.63534H11.434L8.84418 7.16603C8.61727 7.38777 8.61727 7.74698 8.84418 7.96862C8.95761 8.07936 9.10621 8.13481 9.25486 8.13481C9.4034 8.13481 9.552 8.07936 9.66543 7.96862L13.2467 4.46895C13.4736 4.24736 13.4736 3.88815 13.2467 3.66651Z" transform="translate(13.417 14.918) rotate(-180)" fill="white"/>
</svg>
