<svg width="34" height="32" viewBox="0 0 34 32" fill="none" xmlns="http://www.w3.org/2000/svg">
<path d="M0.673226 0H0.664062C0.297367 0 0 0.293574 0 0.655738C0 1.0179 0.297367 1.31148 0.664062 1.31148H0.673226C1.03992 1.31148 1.33729 1.0179 1.33729 0.655738C1.33729 0.293574 1.03992 0 0.673226 0Z" transform="translate(0 30.6875)" fill="white"/>
<path d="M31.9136 22.1914C31.9039 22.1881 31.8942 22.185 31.8844 22.1821L26.3901 20.5725C26.242 20.5183 26.138 20.4174 26.1256 20.3193V18.7104C26.1256 18.6887 26.1244 18.6673 26.1224 18.6462L28.2169 17.4603C28.229 17.4534 28.2409 17.4462 28.2525 17.4386C29.2139 16.8116 29.8453 15.6952 29.9416 14.4521C29.9429 14.4355 29.9435 14.4188 29.9435 14.4021V13.7221C30.9157 13.4385 31.6272 12.5489 31.6272 11.4982C31.6272 10.9512 31.4341 10.4481 31.1121 10.0512C31.4099 10.1444 31.7037 10.2415 31.9905 10.3449C32.0651 10.3718 32.142 10.3847 32.2183 10.3847C32.4215 10.3847 32.6185 10.2925 32.7468 10.1262C32.923 9.89751 32.928 9.5821 32.759 9.34813L29.6854 5.09397V1.91679C29.6854 1.64492 29.5155 1.40118 29.2582 1.3042C29.1169 1.25095 25.7616 0 22.5142 0C19.2668 0 15.9115 1.25095 15.7703 1.3042C15.5131 1.40118 15.3431 1.64492 15.3431 1.91679V5.09495L12.2834 9.34951C12.1151 9.58361 12.1205 9.89869 12.2969 10.1269C12.4733 10.3552 12.7796 10.4436 13.0527 10.3451C13.3331 10.244 13.6204 10.149 13.9114 10.0576C13.5924 10.4536 13.4012 10.9542 13.4012 11.4983C13.4012 12.549 14.1128 13.4387 15.085 13.7222V14.4022C15.085 14.4189 15.0856 14.4355 15.0869 14.4522C15.1835 15.7005 15.8104 16.817 16.7638 17.4387C16.7757 17.4464 16.7878 17.4538 16.8002 17.4608L18.9189 18.6569C18.9175 18.6746 18.9162 18.6923 18.9162 18.7104V20.0265C18.9094 20.064 18.9053 20.1024 18.9053 20.1418V20.3C18.9053 20.4039 18.7961 20.5148 18.6383 20.5725L13.1391 22.1821C13.1293 22.185 13.1194 22.1881 13.1097 22.1915C11.8814 22.6132 11.0234 23.7542 11.0234 24.966V30.6885H6.77344V24.2623H8.03516C9.31673 24.2623 10.3594 23.2327 10.3594 21.9672V12.9809C10.3594 12.6187 10.062 12.3251 9.69531 12.3251C9.32862 12.3251 9.03125 12.6187 9.03125 12.9809V21.9672C9.03125 22.5096 8.5844 22.9508 8.03516 22.9508H7.35204V12.9201C7.35204 12.5579 7.05467 12.2643 6.68797 12.2643C6.32128 12.2643 6.02391 12.5579 6.02391 12.9201V22.9508H4.34463V12.9201C4.34463 12.5579 4.04726 12.2643 3.68057 12.2643C3.31387 12.2643 3.0165 12.5579 3.0165 12.9201V22.9508H2.32422C1.77497 22.9508 1.32812 22.5096 1.32812 21.9672V12.9809C1.32812 12.6187 1.03076 12.3251 0.664062 12.3251C0.297367 12.3251 0 12.6187 0 12.9809V21.9672C0 23.2327 1.04264 24.2623 2.32422 24.2623H3.58594V30.6885H2.65525C2.28856 30.6885 1.99119 30.9821 1.99119 31.3443C1.99119 31.7064 2.28856 32 2.65525 32H33.3359C33.7026 32 34 31.7064 34 31.3443C34 31.2664 34 24.966 34 24.966C34 23.7542 33.142 22.6132 31.9136 22.1914ZM5.44531 30.6885H4.91406V24.2623H5.44531V30.6885ZM16.6713 2.38098C17.6502 2.0562 20.1526 1.31148 22.5142 1.31148C24.8707 1.31148 27.3772 2.05666 28.3571 2.38131V4.48039C27.2934 4.27115 25.2547 3.96839 22.3591 3.96839C19.5568 3.96839 17.677 4.25331 16.6713 4.46334V2.38098ZM16.414 5.87108C17.0153 5.71416 18.9852 5.27987 22.3591 5.27987C25.7693 5.27987 27.9565 5.72367 28.6217 5.88013L30.524 8.51311C28.0818 7.8602 25.3541 7.51928 22.5215 7.51928C19.6864 7.51928 16.9565 7.86079 14.5126 8.51488L16.414 5.87108ZM17.4793 16.3334C16.8807 15.9346 16.4838 15.2058 16.4132 14.3761V13.1609C16.4132 12.7988 16.1158 12.5052 15.7491 12.5052C15.1868 12.5052 14.7294 12.0535 14.7294 11.4983C14.7294 10.9431 15.1869 10.4914 15.7491 10.4914C16.1032 10.4914 16.395 10.217 16.4124 9.86787L16.4349 9.41357C18.3432 9.02997 20.3992 8.83082 22.5215 8.83082C24.6465 8.83082 26.705 9.03043 28.6153 9.41495V9.83567C28.6153 10.1978 28.9127 10.4914 29.2794 10.4914C29.8416 10.4914 30.299 10.9431 30.299 11.4983C30.299 12.0535 29.8416 12.5052 29.2794 12.5052C28.9127 12.5052 28.6153 12.7988 28.6153 13.1609V14.3759C28.5449 15.201 28.1434 15.9298 27.5368 16.3336L23.4981 18.6203C23.486 18.6271 23.4741 18.6344 23.4625 18.642C22.8687 19.0292 22.1598 19.0291 21.5661 18.642C21.5542 18.6342 21.5421 18.6268 21.5297 18.6199L17.4793 16.3334ZM24.7974 20.3581V20.7819L22.5239 23.0168L20.2444 20.7814V19.405L20.853 19.7485C21.3664 20.0784 21.9403 20.2431 22.5143 20.2431C23.0884 20.2431 23.6624 20.0782 24.1759 19.7483L24.7974 19.3964V20.0936C24.7962 20.1096 24.7949 20.1256 24.7949 20.1418V20.3C24.7949 20.3195 24.7966 20.3388 24.7974 20.3581ZM14.1417 30.6885H12.3516V24.966C12.3516 24.3285 12.8584 23.6726 13.5327 23.4348L14.1417 23.2565V30.6885ZM29.5508 30.6885H28.7742V26.0751C28.7742 25.7129 28.4769 25.4193 28.1102 25.4193C27.7435 25.4193 27.4461 25.7129 27.4461 26.0751V30.6885H17.5745V26.0751C17.5745 25.7129 17.2772 25.4193 16.9105 25.4193C16.5438 25.4193 16.2464 25.7129 16.2464 26.0751V30.6885H15.4699V22.8678L19.0333 21.8248C19.0432 21.8219 19.053 21.8188 19.0627 21.8154C19.1485 21.786 19.2304 21.7511 19.3085 21.7119L22.0565 24.4067C22.186 24.5337 22.3552 24.5971 22.5245 24.5971C22.6939 24.5971 22.8634 24.5334 22.993 24.4061L25.7293 21.7163C25.8047 21.7536 25.8833 21.7871 25.9658 21.8154C25.9755 21.8188 25.9852 21.8218 25.9949 21.8247L29.5508 22.8664V30.6885ZM32.6719 30.6885H30.8789V23.2555L31.4907 23.4347C32.165 23.6726 32.6719 24.3285 32.6719 24.966V30.6885Z" fill="white"/>
<path d="M0.752583 0C0.33761 0 0 0.333378 0 0.743148C0 1.15292 0.33761 1.48629 0.752583 1.48629C1.16756 1.48629 1.50517 1.15292 1.50517 0.743148C1.50517 0.333378 1.16756 0 0.752583 0Z" transform="translate(24.5029 10.8438)" fill="white"/>
<path d="M0.752581 0C0.337608 0 0 0.333378 0 0.743148C0 1.15292 0.337608 1.48629 0.752581 1.48629C1.16755 1.48629 1.50516 1.15292 1.50516 0.743148C1.50516 0.333378 1.16755 0 0.752581 0Z" transform="translate(19.0205 10.8438)" fill="white"/>
<path d="M0.664062 0C0.297367 0 0 0.293574 0 0.655738V0.664985C0 1.02715 0.297367 1.32072 0.664062 1.32072C1.03076 1.32072 1.32813 1.02715 1.32813 0.664985V0.655738C1.32813 0.293574 1.03076 0 0.664062 0Z" transform="translate(16.2461 23.4453)" fill="white"/>
<path d="M0.664062 0C0.297367 0 0 0.293574 0 0.655738V0.664985C0 1.02715 0.297301 1.32072 0.664062 1.32072C1.03076 1.32072 1.32812 1.02715 1.32812 0.664985V0.655738C1.32812 0.293574 1.03076 0 0.664062 0Z" transform="translate(27.4463 23.4453)" fill="white"/>
<path d="M2.49067 0.230991C2.26429 -0.0320908 1.87263 -0.0747787 1.59445 0.125221C1.57234 0.135254 1.48594 0.168958 1.32132 0.168958C1.16374 0.168958 1.08113 0.138205 1.05862 0.128303C0.783698 -0.0725494 0.394424 -0.0349758 0.164991 0.223254C-0.0769938 0.495451 -0.0495676 0.909746 0.226018 1.14863C0.315866 1.22647 0.660248 1.48043 1.32132 1.48043C1.97675 1.48037 2.32412 1.23158 2.4149 1.15532C2.69434 0.920697 2.72827 0.50686 2.49067 0.230991Z" transform="translate(21.1929 14.4102)" fill="white"/>
</svg>
