<svg width="30" height="24" viewBox="0 0 30 24" fill="none" xmlns="http://www.w3.org/2000/svg">
<path d="M7.2598 0.0643575L4.8598 1.48479C4.00978 1.97456 3.10978 2.41538 2.25982 2.80724C2.0098 2.90521 1.7098 3.05215 1.4098 3.19909C0.359799 3.73789 -0.190221 4.86438 0.0597982 5.99093C0.259779 6.87257 1.00978 7.60726 1.90978 7.80316C2.10976 7.85212 2.3098 7.85212 2.50978 7.85212C3.45976 7.85212 4.30978 7.31332 4.75978 6.48071C4.8598 6.23579 5.0098 5.94191 5.1598 5.64804C5.6098 4.81536 6.00982 3.93373 6.5098 3.10111L7.95982 0.750092C8.05984 0.554192 8.0098 0.358235 7.8598 0.162336C7.7098 -0.0336208 7.45978 -0.0336209 7.2598 0.0643575ZM5.65978 2.56232C5.10976 3.44395 4.65976 4.32558 4.2598 5.20722C4.15978 5.5011 4.00978 5.74601 3.85978 6.03989C3.55978 6.67661 2.85976 6.97049 2.1598 6.82355C1.60978 6.72557 1.15978 6.28475 1.05982 5.74601C0.909818 5.06028 1.20982 4.3746 1.8598 4.08073C2.10982 3.93379 2.40982 3.83581 2.70982 3.68887C3.60982 3.24805 4.5598 2.80724 5.40982 2.31746L6.0598 1.9256L5.65978 2.56232Z" transform="translate(12.4902 9.29102)" fill="white"/>
<path d="M28.9288 9.25686C28.9225 9.22386 28.913 9.19108 28.9 9.15917C28.887 9.12714 28.8703 9.09781 28.851 9.07095C28.1017 7.31365 27.0132 5.72666 25.6665 4.38928C25.6475 4.36162 25.6255 4.3351 25.6 4.31019C25.5746 4.28528 25.5475 4.26364 25.5193 4.24504C22.8066 1.62396 19.0877 0 15 0C13.0419 0 11.1686 0.373087 9.44971 1.04929C9.41602 1.05549 9.38256 1.06479 9.35004 1.07753C9.3174 1.09033 9.2874 1.10663 9.25998 1.12557C7.46607 1.85952 5.84602 2.92586 4.48078 4.24504C4.45254 4.26364 4.42547 4.28528 4.40004 4.31019C4.37461 4.3351 4.35246 4.36162 4.33354 4.38928C1.65779 7.04658 0 10.6896 0 14.6939C0 18.0245 1.09998 21.2082 3.25002 23.8041C3.35004 23.951 3.50004 24 3.65004 24H26.35C26.5 24 26.65 23.951 26.75 23.8041C28.9 21.2082 30 18.0245 30 14.6939C30 12.7758 29.6191 10.9407 28.9288 9.25686ZM26.15 23.0204H3.9C3.22389 22.1664 2.66238 21.2501 2.21865 20.2874L3.6 19.7388C3.85002 19.6409 3.94998 19.347 3.85002 19.1021C3.75 18.8572 3.45 18.7593 3.20004 18.8572L1.84594 19.395C1.34355 18.0552 1.06113 16.6386 1.00934 15.1837H4.5C4.8 15.1837 4.99998 14.9878 4.99998 14.6939C4.99998 14.4001 4.8 14.2041 4.5 14.2041H1.00998C1.06605 12.6597 1.38592 11.1784 1.92686 9.80203L3.3 10.3837C3.34998 10.4327 3.45 10.4327 3.49998 10.4327C3.69996 10.4327 3.84996 10.3347 3.94998 10.1388C4.05 9.89387 3.94998 9.59999 3.69996 9.50207L2.31293 8.91448C2.93982 7.60403 3.77227 6.40499 4.7693 5.3577L5.79996 6.36733C5.89998 6.46531 5.99994 6.51427 6.14994 6.51427C6.29994 6.51427 6.39996 6.46531 6.49992 6.36733C6.6999 6.17143 6.6999 5.87756 6.49992 5.6816L5.46926 4.67197C6.58939 3.64868 7.87928 2.80188 9.29215 2.17871L9.84996 3.52653C9.89994 3.72243 10.1 3.82041 10.3 3.82041C10.3499 3.82041 10.4 3.82041 10.4999 3.77145C10.75 3.67347 10.8499 3.37959 10.75 3.13473L10.2033 1.81389C11.5522 1.32813 12.997 1.04177 14.5 0.989427V4.40822C14.5 4.7021 14.6999 4.898 14.9999 4.898C15.2999 4.898 15.4999 4.7021 15.4999 4.40822V0.989369C17.0765 1.0443 18.5887 1.35764 19.9937 1.88753L19.3999 3.23271C19.2999 3.47763 19.3999 3.77151 19.6499 3.86943C19.6999 3.91839 19.7999 3.91839 19.8499 3.91839C20.0499 3.91839 20.2499 3.77145 20.2999 3.62451L20.8997 2.26579C22.2375 2.87989 23.4615 3.69534 24.5306 4.67203L23.5 5.68166C23.3 5.87756 23.3 6.17143 23.5 6.36739C23.6 6.46537 23.6999 6.51433 23.8499 6.51433C23.95 6.51433 24.1 6.46537 24.1999 6.36739L25.2306 5.35776C26.2752 6.45504 27.1396 7.7186 27.7758 9.10263L26.3999 9.64906C26.1499 9.74704 26.0499 10.0409 26.1499 10.2858C26.1998 10.4817 26.3999 10.5797 26.5999 10.5797C26.6498 10.5797 26.6999 10.5307 26.7998 10.5307L28.1483 9.99523C28.6441 11.3166 28.9365 12.7319 28.9899 14.2042H25.5C25.2 14.2042 25 14.4001 25 14.6939C25 14.9878 25.2 15.1837 25.5 15.1837H28.9907C28.9364 16.7101 28.6291 18.1943 28.0873 19.5918L26.7 19.0041C26.45 18.9062 26.15 19.0041 26.05 19.2491C25.95 19.494 26.05 19.7878 26.3 19.8858L27.7052 20.481C27.2838 21.373 26.764 22.2238 26.15 23.0204Z" fill="white"/>
</svg>
