<svg width="33" height="30" viewBox="0 0 33 30" fill="none" xmlns="http://www.w3.org/2000/svg">
<path d="M0.687522 1.36368C1.06723 1.36368 1.37504 1.05841 1.37504 0.681839C1.37504 0.305269 1.06723 0 0.687522 0C0.307814 0 0 0.305269 0 0.681839C0 1.05841 0.307814 1.36368 0.687522 1.36368Z" transform="translate(2.75 2.72852)" fill="white"/>
<path d="M0.687522 1.36368C1.06723 1.36368 1.37504 1.05841 1.37504 0.681839C1.37504 0.305269 1.06723 0 0.687522 0C0.307814 0 0 0.305269 0 0.681839C0 1.05841 0.307814 1.36368 0.687522 1.36368Z" transform="translate(5.5 2.72852)" fill="white"/>
<path d="M0.687522 1.36368C1.06723 1.36368 1.37504 1.05841 1.37504 0.681839C1.37504 0.305269 1.06723 0 0.687522 0C0.307814 0 0 0.305269 0 0.681839C0 1.05841 0.307814 1.36368 0.687522 1.36368Z" transform="translate(8.25 2.72852)" fill="white"/>
<path d="M0.687521 1.36368H15.8125C16.1926 1.36368 16.5001 1.05871 16.5001 0.681839C16.5001 0.304965 16.1926 0 15.8125 0H0.687521C0.307506 0 0 0.304965 0 0.681839C0 1.05871 0.30757 1.36368 0.687521 1.36368Z" transform="translate(6.875 12.2715)" fill="white"/>
<path d="M8.93752 0H0.687521C0.307506 0 0 0.304964 0 0.681838C0 1.05871 0.307506 1.36368 0.687521 1.36368H8.93752C9.31754 1.36368 9.62504 1.05871 9.62504 0.681838C9.62504 0.304964 9.31754 0 8.93752 0Z" transform="translate(6.875 20.4551)" fill="white"/>
<path d="M30.3682 8.18181C30.3284 8.18181 30.2897 8.19171 30.25 8.19357V2.72729C30.25 1.22318 29.016 0 27.5 0H2.75002C1.23402 0 0 1.22318 0 2.72729V27.2727C0 28.7768 1.23402 30 2.75002 30H27.5C29.016 30 30.25 28.7769 30.25 27.2727V14.6002L32.2293 12.6376C32.2293 12.6376 32.2293 12.6376 32.2293 12.637C32.7194 12.1509 33 11.4784 33 10.7919C33 9.35238 31.8197 8.18181 30.3682 8.18181ZM1.37498 2.72729C1.37498 1.97559 1.99134 1.36368 2.74996 1.36368H27.5C28.2587 1.36368 28.875 1.97559 28.875 2.72729V5.45458H1.37498V2.72729ZM28.875 27.2727C28.875 28.0244 28.2586 28.6363 27.5 28.6363H2.75002C1.99134 28.6363 1.37504 28.0244 1.37504 27.2727V6.81819H28.875V8.64759C28.7445 8.73657 28.6196 8.83443 28.5071 8.94623L21.0267 16.3637H7.56248C7.18246 16.3637 6.87496 16.6686 6.87496 17.0455C6.87496 17.4224 7.18246 17.7274 7.56248 17.7274H19.9236L19.2634 21.0026C19.2178 21.2264 19.2889 21.4574 19.4514 21.6185C19.5817 21.7477 19.7576 21.8183 19.9375 21.8183C19.9819 21.8183 20.0275 21.8136 20.0718 21.805L23.508 21.1231C23.6422 21.0965 23.7644 21.0319 23.8598 20.9367L28.875 15.9637V27.2727ZM23.0353 19.8266L20.8144 20.2674L21.2588 18.0622L27.4997 11.8729L29.2778 13.6363L23.0353 19.8266ZM31.2571 11.6735L30.25 12.6722L28.4718 10.9087L29.4792 9.90964C29.7128 9.67857 30.0364 9.54542 30.3681 9.54542C31.061 9.54542 31.625 10.1047 31.625 10.7919C31.625 11.1195 31.4907 11.4411 31.2571 11.6735Z" fill="white"/>
</svg>
